# xmcd CD database file
#
# Track frame offsets:
#	150
#	18862
#	34893
#	50296
#	64771
#	82462
#	102421
#	120818
#	136943
#	150567
#	166583
#	187271
#	208533
#	224471
#
# Disc length: 3190 seconds
#
# Revision: 0
# Processed by: cddbd v1.5.2PL0 Copyright (c) Steve Scherf et al.
# Submitted via: CDex 1.97
#
DISCID=bd0c740e
DTITLE=Scott Bradlee's Postmodern Jukebox - Top Hat on Fleek
DYEAR=2015
DGENRE=Jazz
TTITLE0=Halo
TTITLE1=Hey There Delilah
TTITLE2=Hey Ya
TTITLE3=Give It Away
TTITLE4=Thong Song
TTITLE5=Viva La Vida
TTITLE6=Sugar We re Going Down
TTITLE7=Welcome To The Jungle
TTITLE8=Umbrella
TTITLE9=Single Ladies Put A Ring On It
TTITLE10=Someday
TTITLE11=Say My Name
TTITLE12=Where Are U Now
TTITLE13=Mad World
EXTD=YEAR: 2015
EXTT0=
EXTT1=
EXTT2=
EXTT3=
EXTT4=
EXTT5=
EXTT6=
EXTT7=
EXTT8=
EXTT9=
EXTT10=
EXTT11=
EXTT12=
EXTT13=
PLAYORDER=
